<svg width="43" height="43" viewBox="0 0 43 43" fill="none" xmlns="http://www.w3.org/2000/svg">
<mask id="mask0" mask-type="alpha" maskUnits="userSpaceOnUse" x="0" y="0" width="43" height="43">
<rect width="43" height="43" rx="21.5" fill="#171819"/>
<rect width="43" height="43" rx="21.5" fill="#171819"/>
</mask>
<g mask="url(#mask0)">
<path d="M23.4956 21.4988L29.5814 15.4263C29.8479 15.1598 29.9976 14.7982 29.9976 14.4213C29.9976 14.0443 29.8479 13.6828 29.5814 13.4163C29.3148 13.1497 28.9534 13 28.5765 13C28.1996 13 27.8381 13.1497 27.5716 13.4163L21.5 19.5029L15.4284 13.4163C15.1619 13.1497 14.8004 13 14.4235 13C14.0466 13 13.6851 13.1497 13.4186 13.4163C13.1521 13.6828 13.0024 14.0443 13.0024 14.4213C13.0024 14.7982 13.1521 15.1598 13.4186 15.4263L19.5044 21.4988L13.4186 27.5713C13.286 27.7029 13.1807 27.8594 13.1088 28.0319C13.037 28.2044 13 28.3894 13 28.5763C13 28.7632 13.037 28.9482 13.1088 29.1207C13.1807 29.2932 13.286 29.4497 13.4186 29.5813C13.5502 29.714 13.7067 29.8193 13.8792 29.8911C14.0517 29.963 14.2367 30 14.4235 30C14.6103 30 14.7953 29.963 14.9678 29.8911C15.1403 29.8193 15.2968 29.714 15.4284 29.5813L21.5 23.4946L27.5716 29.5813C27.7032 29.714 27.8597 29.8193 28.0322 29.8911C28.2047 29.963 28.3897 30 28.5765 30C28.7633 30 28.9483 29.963 29.1208 29.8911C29.2933 29.8193 29.4498 29.714 29.5814 29.5813C29.714 29.4497 29.8193 29.2932 29.8912 29.1207C29.963 28.9482 30 28.7632 30 28.5763C30 28.3894 29.963 28.2044 29.8912 28.0319C29.8193 27.8594 29.714 27.7029 29.5814 27.5713L23.4956 21.4988Z" fill="url(#paint0_linear)"/>
</g>
<defs>
<linearGradient id="paint0_linear" x1="13" y1="13" x2="30.2258" y2="13.2592" gradientUnits="userSpaceOnUse">
<stop stop-color="#E85D54"/>
<stop offset="1" stop-color="#DA3F5B"/>
</linearGradient>
</defs>
</svg>
