<svg width="43" height="43" viewBox="0 0 43 43" fill="none" xmlns="http://www.w3.org/2000/svg">
<path d="M30.5563 12.4398C27.3032 9.18673 22.0102 9.18673 18.7571 12.4398C17.1812 14.0156 16.3134 16.1109 16.3134 18.3394C16.3134 20.3696 17.0339 22.2888 18.3534 23.8059L17.3598 24.7995L16.3472 23.7869C16.2362 23.6759 16.0857 23.6136 15.9288 23.6136C15.7719 23.6136 15.6213 23.6759 15.5104 23.7869L10.7661 28.5312C10.2721 29.0251 10 29.6819 10 30.3806C10 31.0792 10.2721 31.7361 10.7661 32.23C11.2601 32.7241 11.9169 32.9961 12.6155 32.9961C13.3141 32.9961 13.971 32.724 14.4649 32.2301L19.2092 27.4859C19.3202 27.3749 19.3825 27.2244 19.3825 27.0675C19.3825 26.9106 19.3202 26.76 19.2092 26.6491L18.1966 25.6364L19.1905 24.6425C20.7535 25.9998 22.7049 26.6789 24.6567 26.6789C26.7932 26.6789 28.9298 25.8656 30.5563 24.2391C32.1321 22.6633 33 20.5681 33 18.3395C33 16.1108 32.1322 14.0156 30.5563 12.4398ZM13.6281 31.3932C13.3576 31.6637 12.998 31.8127 12.6155 31.8127C12.233 31.8127 11.8733 31.6637 11.6029 31.3932C11.3324 31.1228 11.1834 30.7631 11.1834 30.3806C11.1834 29.9982 11.3324 29.6385 11.6029 29.368L14.2503 26.7206L16.2756 28.7458L13.6281 31.3932ZM17.1125 27.9089L15.0872 25.8837L15.9288 25.0421L17.954 27.0674L17.1125 27.9089ZM29.7195 23.4022C26.9279 26.1939 22.3856 26.1939 19.594 23.4022C18.2416 22.0499 17.4969 20.2519 17.4969 18.3394C17.4969 16.4269 18.2416 14.629 19.594 13.2767C20.9898 11.8809 22.8233 11.1829 24.6568 11.1829C26.4902 11.1829 28.3237 11.8808 29.7195 13.2767C31.0719 14.629 31.8166 16.427 31.8166 18.3394C31.8166 20.2519 31.0718 22.0499 29.7195 23.4022Z" fill="url(#paint0_linear)"/>
<path d="M28.7429 14.2525C26.4897 11.9994 22.8236 11.9993 20.5704 14.2525C18.3173 16.5057 18.3173 20.1718 20.5705 22.425C21.6971 23.5515 23.1768 24.1148 24.6567 24.1148C26.1366 24.1148 27.6164 23.5515 28.743 22.425V22.4249C30.9961 20.1718 30.9961 16.5057 28.7429 14.2525ZM27.9061 21.5882C26.1143 23.3799 23.199 23.3799 21.4073 21.5882C19.6155 19.7965 19.6155 16.8811 21.4072 15.0894C22.3032 14.1934 23.4798 13.7456 24.6567 13.7456C25.8333 13.7456 27.0103 14.1936 27.9061 15.0894C29.6978 16.8811 29.6978 19.7964 27.9061 21.5882Z" fill="url(#paint1_linear)"/>
<path d="M26.8601 16.1353C25.645 14.9204 23.6682 14.9204 22.4532 16.1353C22.2221 16.3664 22.2221 16.741 22.4532 16.9722C22.6843 17.2033 23.0589 17.2033 23.2901 16.9722C24.0435 16.2187 25.2697 16.2187 26.0232 16.9722C26.1388 17.0878 26.2902 17.1455 26.4416 17.1455C26.5931 17.1455 26.7446 17.0877 26.8601 16.9722C27.0911 16.7411 27.0911 16.3664 26.8601 16.1353Z" fill="url(#paint2_linear)"/>
<defs>
<linearGradient id="paint0_linear" x1="10" y1="10" x2="33.3055" y2="10.3508" gradientUnits="userSpaceOnUse">
<stop stop-color="#E85D54"/>
<stop offset="1" stop-color="#DA3F5B"/>
</linearGradient>
<linearGradient id="paint1_linear" x1="18.8806" y1="12.5626" x2="30.5863" y2="12.7388" gradientUnits="userSpaceOnUse">
<stop stop-color="#E85D54"/>
<stop offset="1" stop-color="#DA3F5B"/>
</linearGradient>
<linearGradient id="paint2_linear" x1="22.2799" y1="15.2241" x2="27.0909" y2="15.4032" gradientUnits="userSpaceOnUse">
<stop stop-color="#E85D54"/>
<stop offset="1" stop-color="#DA3F5B"/>
</linearGradient>
</defs>
</svg>
