<svg width="22" height="22" viewBox="0 0 22 22" fill="none" xmlns="http://www.w3.org/2000/svg">
<path d="M11 0.458313C4.9225 0.458313 0 5.29831 0 11.2676C0 16.0444 3.1515 20.0951 7.52125 21.5233C8.07125 21.6251 8.27292 21.2905 8.27292 21.0036C8.27292 20.7469 8.26375 20.0667 8.25917 19.1657C5.19933 19.8174 4.554 17.7155 4.554 17.7155C4.0535 16.4679 3.33025 16.1342 3.33025 16.1342C2.33383 15.4641 3.40725 15.4779 3.40725 15.4779C4.51183 15.5531 5.09208 16.5916 5.09208 16.5916C6.07292 18.2444 7.667 17.7668 8.29583 17.4909C8.39483 16.7915 8.67808 16.3157 8.9925 16.0453C6.54958 15.7749 3.982 14.8454 3.982 10.7039C3.982 9.52415 4.40825 8.55981 5.11408 7.80356C4.99033 7.5304 4.61908 6.43131 5.21033 4.94265C5.21033 4.94265 6.13158 4.65298 8.23533 6.0509C9.11533 5.81073 10.0503 5.69156 10.9853 5.68606C11.9203 5.69156 12.8553 5.81073 13.7353 6.0509C15.8253 4.65298 16.7466 4.94265 16.7466 4.94265C17.3378 6.43131 16.9666 7.5304 16.8566 7.80356C17.5578 8.55981 17.9841 9.52415 17.9841 10.7039C17.9841 14.8564 15.4128 15.7703 12.9653 16.0361C13.3503 16.3606 13.7078 17.0234 13.7078 18.0363C13.7078 19.4828 13.6941 20.6452 13.6941 20.9962C13.6941 21.2795 13.8866 21.6177 14.4503 21.5096C18.8513 20.0906 22 16.0371 22 11.2676C22 5.29831 17.0748 0.458313 11 0.458313V0.458313Z" fill="url(#paint0_linear)"/>
<defs>
<linearGradient id="paint0_linear" x1="0" y1="0.458313" x2="22.2918" y2="0.80837" gradientUnits="userSpaceOnUse">
<stop stop-color="#E85D54"/>
<stop offset="1" stop-color="#DA3F5B"/>
</linearGradient>
</defs>
</svg>
