<svg width="19" height="19" viewBox="0 0 19 19" fill="none" xmlns="http://www.w3.org/2000/svg">
<path d="M17.1 0H1.9C0.855 0 0 0.855 0 1.9V17.1C0 18.145 0.855 19 1.9 19H17.1C18.145 19 19 18.145 19 17.1V1.9C19 0.855 18.145 0 17.1 0ZM5.7 16.15H2.85V7.6H5.7V16.15ZM4.275 5.985C3.325 5.985 2.565 5.225 2.565 4.275C2.565 3.325 3.325 2.565 4.275 2.565C5.225 2.565 5.985 3.325 5.985 4.275C5.985 5.225 5.225 5.985 4.275 5.985ZM16.15 16.15H13.3V11.115C13.3 10.355 12.635 9.69 11.875 9.69C11.115 9.69 10.45 10.355 10.45 11.115V16.15H7.6V7.6H10.45V8.74C10.925 7.98 11.97 7.41 12.825 7.41C14.63 7.41 16.15 8.93 16.15 10.735V16.15Z" fill="url(#paint0_linear)"/>
<defs>
<linearGradient id="paint0_linear" x1="0" y1="0" x2="19.2524" y2="0.289736" gradientUnits="userSpaceOnUse">
<stop stop-color="#E85D54"/>
<stop offset="1" stop-color="#DA3F5B"/>
</linearGradient>
</defs>
</svg>
