<svg width="43" height="43" viewBox="0 0 43 43" fill="none" xmlns="http://www.w3.org/2000/svg">
<path d="M32.9841 15.1765C32.9832 14.5274 32.4549 14 31.806 14C31.8054 14 31.8049 14 31.8044 14L11.1765 14.0283C10.8618 14.0287 10.5661 14.1517 10.3439 14.3745C10.1217 14.5974 9.9996 14.8935 10 15.208L10.0159 26.7992C10.0164 27.1139 10.1393 27.4096 10.3621 27.6318C10.5845 27.8537 10.8799 27.9757 11.194 27.9757C11.1946 27.9757 11.1951 27.9757 11.1956 27.9757L31.8235 27.9474C32.473 27.9465 33.0008 27.4173 33 26.7677L32.9841 15.1765ZM30.5119 15.1799L21.5009 21.444L12.4725 15.2047L30.5119 15.1799ZM25.3115 22.6262L30.6559 26.7709L12.329 26.7961L17.706 22.6262C17.963 22.4268 18.0098 22.0568 17.8104 21.7997C17.611 21.5426 17.2411 21.4958 16.9839 21.6952L11.1932 26.186L11.1788 15.7427L21.1669 22.6453C21.2677 22.715 21.3848 22.7498 21.5018 22.7498C21.6194 22.7498 21.737 22.7146 21.8381 22.6444L31.8068 15.7145L31.8219 26.1843L26.0334 21.6952C25.7765 21.4959 25.4063 21.5427 25.207 21.7997C25.0076 22.0568 25.0543 22.4268 25.3115 22.6262Z" fill="url(#paint0_linear)"/>
<defs>
<linearGradient id="paint0_linear" x1="10" y1="14" x2="33.2965" y2="14.577" gradientUnits="userSpaceOnUse">
<stop stop-color="#E85D54"/>
<stop offset="1" stop-color="#DA3F5B"/>
</linearGradient>
</defs>
</svg>
