<svg width="56" height="51" viewBox="0 0 56 51" fill="none" xmlns="http://www.w3.org/2000/svg">
<path d="M44.4333 13.402H42.1667V10.5687C42.1678 10.2558 41.915 10.0011 41.602 10.0001C41.5854 9.99998 41.5689 10.0007 41.5524 10.002L40.074 10.1267C36.4887 10.4232 32.9723 11.2806 29.653 12.6676L28 13.355L26.3487 12.6699C23.0291 11.2827 19.5122 10.4251 15.9266 10.1284L14.4476 10.002C14.1357 9.97575 13.8616 10.2072 13.8353 10.5191C13.8339 10.5356 13.8333 10.5522 13.8333 10.5687V13.402H11.5667C11.2537 13.402 11 13.6558 11 13.9687V37.7687C11 38.0816 11.2537 38.3354 11.5667 38.3354H44.4333C44.7463 38.3354 45 38.0816 45 37.7687V13.9687C45 13.6558 44.7463 13.402 44.4333 13.402ZM12.1333 37.2032V14.5354H13.8333V34.3687C13.8323 34.6638 14.0578 34.9103 14.3518 34.9354L15.8767 35.0657C16.2923 35.1005 16.7078 35.1433 17.1234 35.1943C17.2622 35.2108 17.3999 35.2329 17.5388 35.251C17.8136 35.2878 18.0884 35.3247 18.3621 35.3683C18.5253 35.3944 18.688 35.425 18.8506 35.4539C19.0988 35.4975 19.347 35.5411 19.5941 35.5899C19.7641 35.6239 19.9341 35.6613 20.1041 35.6981C20.3426 35.7491 20.5812 35.8012 20.8186 35.8579C20.9886 35.8987 21.1615 35.9423 21.3326 35.986C21.5666 36.046 21.8001 36.1072 22.033 36.1718C22.203 36.2194 22.373 36.2693 22.543 36.3192C22.7742 36.3875 23.0048 36.4586 23.2349 36.5322C23.4034 36.5859 23.5715 36.641 23.7392 36.6977C23.971 36.7753 24.2011 36.8569 24.4311 36.9402C24.5943 36.9969 24.7581 37.0587 24.9202 37.1204C24.9904 37.1471 25.0601 37.1771 25.1298 37.2032H12.1333ZM27.4333 36.9187L26.3884 36.4824C23.0713 35.0926 19.5565 34.2321 15.9725 33.9324L14.9667 33.8485V11.1852L15.8314 11.2578C19.2998 11.5444 22.7017 12.3737 25.913 13.7154L27.4333 14.3467V36.9187ZM28.5667 36.9187V14.3467L30.0887 13.7148C33.2994 12.3734 36.7007 11.5443 40.1686 11.2578L41.0333 11.1852V33.8468L40.1023 33.9227C36.5161 34.2204 32.9982 35.0758 29.6756 36.458L28.5667 36.9187ZM43.8667 37.202H30.8787C30.9563 37.172 31.0334 37.1403 31.111 37.1108C31.281 37.0456 31.451 36.9839 31.625 36.9221C31.8471 36.8416 32.0702 36.7636 32.2942 36.6881C32.4687 36.6314 32.6444 36.5747 32.8195 36.5181C33.0433 36.4467 33.2683 36.3787 33.4933 36.3118C33.6701 36.2597 33.8474 36.2081 34.0248 36.1594C34.2515 36.0959 34.4781 36.0364 34.7105 35.978C34.8861 35.9333 35.0624 35.8885 35.2392 35.8466C35.4749 35.7899 35.7123 35.7389 35.9498 35.6885C36.1198 35.6516 36.2898 35.6137 36.4632 35.5797C36.7125 35.5304 36.963 35.4867 37.2129 35.4431C37.3749 35.4148 37.5364 35.3864 37.6991 35.3581C37.9784 35.3139 38.2584 35.2759 38.5389 35.2385C38.6732 35.221 38.8075 35.1994 38.9423 35.1819C39.3579 35.1316 39.7755 35.0887 40.1952 35.0532L41.6465 34.9354C41.9411 34.9111 42.1677 34.6644 42.1667 34.3687V14.5354H43.8667V37.202V37.202Z" fill="#CCCCCC"/>
</svg>
