<svg width="24" height="24" viewBox="0 0 24 24" fill="none" xmlns="http://www.w3.org/2000/svg">
<path d="M7.81877 21.0103C16.3098 21.0103 20.9531 13.9758 20.9531 7.87594C20.9531 7.67615 20.949 7.47718 20.9401 7.27932C21.8413 6.62766 22.6247 5.81446 23.2428 4.88884C22.4157 5.25663 21.5254 5.5039 20.5918 5.61576C21.5448 5.04405 22.2766 4.14003 22.6217 3.06237C21.7297 3.59115 20.7419 3.97533 19.6904 4.18282C18.848 3.28555 17.6486 2.72443 16.3206 2.72443C13.7715 2.72443 11.7041 4.79169 11.7041 7.34C11.7041 7.70243 11.7447 8.05468 11.8238 8.39262C7.98719 8.19957 4.58495 6.36278 2.3084 3.56955C1.91212 4.25162 1.68343 5.04418 1.68343 5.88986C1.68343 7.49122 2.49842 8.90531 3.73762 9.73227C2.98029 9.70902 2.26891 9.50111 1.64697 9.15505C1.64628 9.17445 1.64628 9.1933 1.64628 9.21394C1.64628 11.4496 3.23746 13.3163 5.34999 13.7393C4.96197 13.8448 4.55372 13.9016 4.13267 13.9016C3.83573 13.9016 3.54623 13.8724 3.26498 13.8184C3.85266 15.6525 5.55694 16.9872 7.57742 17.0247C5.99739 18.263 4.00704 19.0007 1.84387 19.0007C1.47181 19.0007 1.10401 18.9794 0.742676 18.9367C2.78572 20.2462 5.21171 21.0105 7.81891 21.0105" fill="url(#paint0_linear)"/>
<defs>
<linearGradient id="paint0_linear" x1="0.742676" y1="2.72443" x2="23.539" y2="3.14656" gradientUnits="userSpaceOnUse">
<stop stop-color="#E85D54"/>
<stop offset="1" stop-color="#DA3F5B"/>
</linearGradient>
</defs>
</svg>
