<svg width="43" height="43" viewBox="0 0 43 43" fill="none" xmlns="http://www.w3.org/2000/svg">
<path d="M28.0782 24.0604C28.0574 24.0582 25.033 24.1474 24.5833 20.9064C25.083 20.5578 25.5435 20.1052 25.9492 19.556C26.7384 18.4876 27.2469 17.1474 27.4281 15.6977C27.4903 15.6414 27.5418 15.5713 27.5765 15.4888C27.9043 14.708 28.0705 13.8743 28.0705 13.0108C28.0705 9.69646 25.5704 7 22.4971 7C21.6933 7 20.9136 7.18515 20.1771 7.55077C19.8961 7.57222 19.6208 7.62163 19.3568 7.69789C18.0946 8.06258 17.0675 8.99842 16.4646 10.3331C15.8793 11.629 15.7639 13.1546 16.1399 14.6288C16.2193 14.9403 16.3203 15.2463 16.44 15.5387C16.4725 15.6178 16.5208 15.6853 16.5789 15.7408C16.8723 18.0035 17.9489 19.8783 19.4169 20.9019C18.9659 24.1484 15.9426 24.0583 15.9218 24.0605C13.7469 24.1343 12 25.9254 12 28.1179V32.6819C12 33.0086 12.2648 33.2734 12.5916 33.2734H17.7863H26.2136H31.4084C31.7351 33.2734 32 33.0086 32 32.6819V28.1179C31.9999 25.9253 30.2532 24.1342 28.0782 24.0604ZM19.6853 8.83457C19.9012 8.77217 20.1292 8.73517 20.3629 8.72465C20.4497 8.72075 20.5345 8.69782 20.6115 8.65738C21.2104 8.34271 21.8448 8.18317 22.4971 8.18317C24.9179 8.18317 26.8874 10.3488 26.8874 13.0108C26.8874 13.0907 26.8851 13.1702 26.8816 13.2494C26.4121 12.7726 25.7597 12.4762 25.0393 12.4762H21.0074C20.7675 12.4762 20.5398 12.4009 20.3489 12.2583C20.1859 12.1367 20.0598 11.9731 19.9845 11.7854C19.868 11.4951 19.5805 11.3135 19.2676 11.3331C18.9535 11.3531 18.6892 11.5712 18.6099 11.876C18.3763 12.7738 17.9104 13.6008 17.2712 14.2714C16.6765 11.8237 17.7498 9.39375 19.6853 8.83457ZM19.1706 19.0663C18.4008 18.1259 17.8967 16.856 17.7369 15.4657C18.4834 14.8004 19.0735 13.9725 19.4577 13.0541C19.516 13.1079 19.5772 13.1587 19.6411 13.2065C20.0381 13.5028 20.5105 13.6594 21.0075 13.6594H25.0393C25.6098 13.6594 26.1015 14.0016 26.3209 14.4913C26.3209 14.4955 26.3203 14.4995 26.3203 14.5037C26.3203 17.8432 24.3826 20.5601 22.0009 20.5601C20.9643 20.5601 19.9591 20.0296 19.1706 19.0663ZM20.5299 21.4828C20.9988 21.6525 21.4921 21.7433 22.0009 21.7433C22.5056 21.7433 22.9986 21.6555 23.4707 21.486C23.6873 22.6145 24.3147 23.598 25.1911 24.2751L22.0848 28.6989C22.0645 28.7278 22.0363 28.7424 22.001 28.7424C21.9658 28.7424 21.9376 28.7277 21.9174 28.6989L18.8102 24.2741C19.6867 23.5963 20.3139 22.612 20.5299 21.4828ZM30.8168 32.0902H26.2136H17.7863H13.1831V28.1178C13.1831 26.531 14.4741 25.24 16.0608 25.24C16.0824 25.24 17.0343 25.2169 17.7865 24.8751L20.949 29.3788C21.1894 29.7212 21.5827 29.9256 22.001 29.9256C22.001 29.9256 22.001 29.9256 22.001 29.9256C22.4193 29.9256 22.8126 29.7212 23.053 29.3788L26.2149 24.8758C27.0728 25.2401 27.9176 25.2401 27.9391 25.2401C29.5259 25.2401 30.8168 26.531 30.8168 28.1178V32.0902Z" fill="url(#paint0_linear)"/>
<defs>
<linearGradient id="paint0_linear" x1="12" y1="7" x2="32.2676" y2="7.23218" gradientUnits="userSpaceOnUse">
<stop stop-color="#E85D54"/>
<stop offset="1" stop-color="#DA3F5B"/>
</linearGradient>
</defs>
</svg>
